# AST/ASF file generated using VICON BodyLanguage
# -----------------------------------------------
:version 1.10
:name VICON
:units
  mass 1.0
  length 0.45
  angle deg
:documentation
   .ast/.asf automatically generated from VICON data using
   VICON BodyBuilder and BodyLanguage model FoxedUp or BRILLIANT.MOD
:root
   order TX TY TZ RX RY RZ
   axis XYZ
   position 0 0 0  
   orientation 0 0 0 
:bonedata
  begin
     id 1 
     name lhipjoint
     direction 0.707368 -0.647095 0.284426 
     length 2.60678 
     axis 0 0 0  XYZ
  end
  begin
     id 2 
     name lfemur
     direction 0.34202 -0.939693 0  
     length 6.63812  
     axis 0 0 20  XYZ
    dof rx ry rz
    limits (-160.0 20.0)
           (-70.0 70.0)
           (-60.0 70.0)
  end
  begin
     id 3 
     name ltibia
     direction 0.34202 -0.939693 0   
     length 7.51178   
     axis 0 0 20   XYZ
    dof rx
    limits (-10.0 170.0)
  end
  begin
     id 4 
     name lfoot
     direction 0.121251 -0.333133 0.935051   
     length 1.83716   
     axis -90 7.62852e-016 20   XYZ
    dof rx rz
    limits (-45.0 90.0)
           (-70.0 20.0)
  end
  begin
     id 5 
     name ltoes
     direction 1.53611e-011 -4.21962e-011 1   
     length 0.916133   
     axis -90 7.62852e-016 20   XYZ
    dof rx
    limits (-90.0 20.0)
  end
  begin
     id 6 
     name rhipjoint
     direction -0.692419 -0.660507 0.290321   
     length 2.55385  
     axis 0 0 0  XYZ 
  end
  begin
     id 7 
     name rfemur
     direction -0.34202 -0.939693 0   
     length 7.29079   
     axis 0 0 -20   XYZ
    dof rx ry rz
    limits (-160.0 20.0)
           (-70.0 70.0)
           (-70.0 60.0)
  end
  begin
     id 8 
     name rtibia
     direction -0.34202 -0.939693 0   
     length 7.47143   
     axis 0 0 -20   XYZ
    dof rx
    limits (-10.0 170.0)
 end
 begin
     id 9 
     name rfoot
     direction -0.119907 -0.329441 0.936532   
     length 1.79439  
     axis -90 -7.62852e-016 -20   XYZ
    dof rx rz
    limits (-45.0 90.0)
           (-20.0 70.0)
  end
  begin
     id 10 
     name rtoes
     direction -1.53571e-011 -4.21961e-011 1   
     length 0.896039   
     axis -90 -7.62852e-016 -20   XYZ
    dof rx
    limits (-90.0 20.0)
  end
  begin
     id 11 
     name lowerback
     direction 0.0367721 0.992912 -0.113016   
     length 1.73542   
     axis 0 0 0   XYZ
    dof rx ry rz
    limits (-20.0 45.0)
           (-30.0 30.0)
           (-30.0 30.0)
  end
  begin
     id 12 
     name upperback
     direction -0.000314626 0.990678 0.136227   
     length 1.7514   
     axis 0 0 0   XYZ
    dof rx ry rz
    limits (-20.0 45.0)
           (-30.0 30.0)
           (-30.0 30.0)
  end
  begin
     id 13 
     name thorax
     direction -0.0226159 0.981151 0.191917   
     length 1.71471   
     axis 0 0 0   XYZ
    dof rx ry rz
    limits (-20.0 45.0)
           (-30.0 30.0)
           (-30.0 30.0)
  end
  begin
     id 14 
     name lowerneck
     direction 0.0219333 0.998071 0.0580739   
     length 1.65882   
     axis 0 0 0   XYZ
    dof rx ry rz
    limits (-20.0 45.0)
           (-30.0 30.0)
           (-30.0 30.0)
  end
  begin
     id 15 
     name upperneck
     direction 0.0384529 0.980058 -0.194957   
     length 1.6612   
     axis 0 0 0   XYZ
    dof rx ry rz
    limits (-20.0 45.0)
           (-30.0 30.0)
           (-30.0 30.0)
  end
  begin
     id 16
     name head
     direction 0.00592123 0.997421 -0.0715234  
     length 1.68077  
     axis 0 0 0   XYZ
    dof rx ry rz
    limits (-20.0 45.0)
           (-30.0 30.0)
           (-30.0 30.0)
  end
  begin
     id 17 
     name lclavicle
     direction 0.904803 0.417826 0.0821728  
     length 3.42227  
     axis 0 0 0   XYZ
    dof ry rz
    limits (-20.0 10.0)
           (0.0 20.0)
  end
  begin
     id 18 
     name lhumerus
     direction 1 -4.48965e-011 -2.68786e-027   
     length 5.11878   
     axis -180 -30 -90   XYZ
    dof rx ry rz
    limits (-60.0 90.0)
           (-90.0 90.0)
           (-90.0 90.0)
  end
  begin
     id 19
     name lradius
     direction 1 -4.48965e-011 2.61168e-028   
     length 3.59971   
     axis -180 -30 -90   XYZ
    dof rx
    limits (-10.0 170.0)
  end
  begin
     id 20
     name lwrist
     direction 1 -4.48965e-011 1.58672e-027   
     length 1.79985   
     axis -1.65735e-015 90 90   XYZ
    dof ry
    limits (-180.0 0.0)
 end
  begin
     id 21 
     name lhand
     direction 1 -4.48942e-011 3.17344e-027   
     length 0.62877   
     axis -2.02492e-015 90 90   XYZ
    dof rx rz
    limits (-90.0 90.0)
           (-45.0 45.0)
  end
  begin
     id 22 
     name lfingers
     direction 1 -4.49011e-011 6.34687e-027   
     length 0.506931   
     axis -4.04985e-015 90 90   XYZ
    dof rx
    limits (0.0 90.0)
  end
  begin
     id 23
     name lthumb
     direction 0.707107 -6.34982e-011 0.707107   
     length 0.727854   
     axis -90 45 2.85299e-015   XYZ
    dof rx rz
    limits (-45.0 45.0)
           (-45.0 45.0)
  end
  begin
     id 24 
     name rclavicle
     direction -0.945647 0.32488 0.0143075   
     length 3.52737  
     axis 0 0 0   XYZ 
    dof ry rz
    limits (-10.0 20.0)
           (-20.0 0.0)
  end
  begin
     id 25 
     name rhumerus
     direction -1 -4.48962e-011 1.92182e-027  
     length 5.4902   
     axis -180 30 90   XYZ
    dof rx ry rz
    limits (-90.0 60.0)
           (-90.0 90.0)
           (-90.0 90.0)
  end
  begin
     id 26 
     name rradius
     direction -1 -4.48967e-011 -5.97193e-028   
     length 3.20659   
     axis -180 30 90   XYZ
    dof rx
    limits (-10.0 170.0)
  end
  begin
     id 27 
     name rwrist
     direction -1 -4.48964e-011 1.58672e-027   
     length 1.6033   
     axis -1.65735e-015 -90 -90   XYZ
    dof ry
    limits (-180.0 0.0)
  end
  begin
     id 28
     name rhand
     direction -1 -4.49006e-011 3.17344e-027   
     length 0.691885   
     axis -2.02492e-015 -90 -90   XYZ
    dof rx rz
    limits (-90.0 90.0)
           (-45.0 45.0)
  end
  begin
     id 29
     name rfingers
     direction -1 -4.48908e-011 6.34687e-027   
     length 0.557815   
     axis -4.04985e-015 -90 -90   XYZ
    dof rx
    limits (0.0 90.0)
  end
  begin
     id 30
     name rthumb
     direction -0.707107 -6.34999e-011 0.707107   
     length 0.800915   
     axis -90 -45 -2.85299e-015   XYZ
    dof rx rz
    limits (-45.0 45.0)
           (-45.0 45.0)
  end
:hierarchy
  begin
    root lhipjoint rhipjoint lowerback
    lhipjoint lfemur
    lfemur ltibia
    ltibia lfoot
    lfoot ltoes
    rhipjoint rfemur
    rfemur rtibia
    rtibia rfoot
    rfoot rtoes
    lowerback upperback
    upperback thorax
    thorax lowerneck lclavicle rclavicle
    lowerneck upperneck
    upperneck head
    lclavicle lhumerus
    lhumerus lradius
    lradius lwrist
    lwrist lhand lthumb
    lhand lfingers
    rclavicle rhumerus
    rhumerus rradius
    rradius rwrist
    rwrist rhand rthumb
    rhand rfingers
  end

#!OML:ASF I:\Actors\actors\Patient Classification 1\Patient 1\Session 1\Subject1.ASF
:FULLY-SPECIFIED
:DEGREES
72
root 0.0249132 17.448 8.3198 8.59142 3.03926 -9.68843
lowerback 0.268569 0.648742 5.2053
upperback -9.62666 1.41089 2.49089
thorax -10.3463 0.381234 -0.369198
lowerneck -0.359167 -12.8746 -9.994
upperneck 15.9967 -18.6855 9.59014
head 6.78583 -9.13274 3.2576
rclavicle -8.94531e-015 -6.48038e-014
rhumerus -43.9365 -15.2712 -77.317
rradius 25.0731
rwrist 37.7462
rhand 6.7846 -35.0205
rfingers 7.12502
rthumb 32.0706 -62.2122
lclavicle -8.94531e-015 -6.48038e-014
lhumerus -45.6993 11.1838 81.8797
lradius 18.8925
lwrist -30.2923
lhand -14.7522 -10.3008
lfingers 7.12502
lthumb 11.4037 19.3691
rfemur -3.74703 24.1726 25.1512
rtibia 3.39202
rfoot -13.6283 -26.5174
rtoes 4.32225
lfemur 2.59868 -42.2174 -7.86778
ltibia -4.66373
lfoot -15.8666 50.6832
ltoes 7.10812
73
root 0.0253778 17.4477 8.32203 8.59224 3.0164 -9.68393
lowerback 0.250424 0.662275 5.20586
upperback -9.60876 1.42658 2.48893
thorax -10.3141 0.389593 -0.373027
lowerneck -0.414257 -12.8814 -10.0162
upperneck 16.0876 -18.6945 9.56384
head 6.82505 -9.13597 3.24542
rclavicle 2.48481e-016 -3.57812e-015
rhumerus -43.9099 -15.2714 -77.3172
rradius 25.076
rwrist 37.7244
rhand 6.84943 -35.0133
rfingers 7.12502
rthumb 32.1324 -62.1926
lclavicle 2.48481e-016 -3.57812e-015
lhumerus -45.6634 11.2489 81.8494
lradius 18.875
lwrist -30.3253
lhand -14.7222 -10.3333
lfingers 7.12502
lthumb 11.4326 19.335
rfemur -3.74892 24.1555 25.1408
rtibia 3.40436
rfoot -13.6371 -26.5028
rtoes 4.23003
lfemur 2.65637 -42.3074 -7.91888
ltibia -4.6761
lfoot -15.9767 50.7821
ltoes 7.22578
74
root 0.0254699 17.4477 8.32343 8.60214 3.00482 -9.70692
lowerback 0.229609 0.667973 5.22722
upperback -9.58868 1.43315 2.4939
thorax -10.2784 0.392166 -0.380141
lowerneck -0.469724 -12.9032 -9.97676
upperneck 16.1043 -18.7173 9.52537
head 6.83478 -9.14463 3.22125
rclavicle -8.39865e-015 -5.56597e-015
rhumerus -43.8686 -15.2989 -77.3173
rradius 25.0778
rwrist 37.7603
rhand 6.92654 -35.0654
rfingers 7.12502
rthumb 32.2058 -62.2299
lclavicle -8.39865e-015 -5.56597e-015
lhumerus -45.6145 11.298 81.832
lradius 18.8735
lwrist -30.3471
lhand -14.6298 -10.3857
lfingers 7.12502
lthumb 11.5218 19.2776
rfemur -3.75539 24.1684 25.1644
rtibia 3.39532
rfoot -13.5831 -26.5167
rtoes 3.95733
lfemur 2.66722 -42.3323 -7.89653
ltibia -4.6887
lfoot -15.9789 50.8184
ltoes 7.35967
75
root 0.0253463 17.4482 8.32496 8.62172 2.99506 -9.71808
lowerback 0.206259 0.664927 5.22382
upperback -9.57587 1.42661 2.49858
thorax -10.2502 0.390194 -0.372572
lowerneck -0.546676 -12.9146 -9.92378
upperneck 16.1183 -18.7231 9.47916
head 6.84337 -9.14411 3.19331
rclavicle 4.96962e-017 1.07344e-014
rhumerus -43.8318 -15.3684 -77.2965
rradius 25.0641
rwrist 37.8807
rhand 7.01472 -35.1471
rfingers 7.12502
rthumb 32.2897 -62.2945
lclavicle 4.96962e-017 1.07344e-014
lhumerus -45.5696 11.3261 81.8189
lradius 18.8758
lwrist -30.3958
lhand -14.5142 -10.3078
lfingers 7.12502
lthumb 11.6332 19.3493
rfemur -3.77359 24.1695 25.1705
rtibia 3.38439
rfoot -13.4946 -26.5078
rtoes 3.66019
lfemur 2.64877 -42.3424 -7.869
ltibia -4.6915
lfoot -15.9813 50.8463
ltoes 7.56876
76
root 0.0254115 17.4487 8.32648 8.63252 2.99561 -9.6998
lowerback 0.192406 0.66638 5.21166
upperback -9.57105 1.42542 2.48573
thorax -10.2361 0.390304 -0.379382
lowerneck -0.606096 -12.9134 -9.90944
upperneck 16.185 -18.7217 9.46194
head 6.87178 -9.14016 3.1804
rclavicle -4.52235e-015 -3.22031e-014
rhumerus -43.807 -15.4289 -77.2665
rradius 25.0262
rwrist 37.9455
rhand 6.96033 -35.0984
rfingers 7.12502
rthumb 32.2379 -62.2564
lclavicle -4.52235e-015 -3.22031e-014
lhumerus -45.5425 11.2628 81.8454
lradius 18.8896
lwrist -30.3696
lhand -14.5002 -10.203
lfingers 7.12502
lthumb 11.6467 19.4533
rfemur -3.79132 24.1526 25.1453
rtibia 3.40845
rfoot -13.5108 -26.477
rtoes 3.77562
lfemur 2.63163 -42.3785 -7.88787
ltibia -4.6712
lfoot -16.0216 50.8799
ltoes 7.59399
